D:\school\WTK\thesis\model\3dpredictsim\Results\tmt_lin\Pog_s1_tmt_bCst_d00_k1000_ig24_act_v4_GRF.mot
nRows=25
nColumns=19

name D:\school\WTK\thesis\model\3dpredictsim\Results\tmt_lin\Pog_s1_tmt_bCst_d00_k1000_ig24_act_v4_GRF.mot
datacolumns 19
datarows 25
range 0.7973621540 1.1800959879
endheader
time 	ground_force_vx	ground_force_vy	ground_force_vz	ground_force_px	ground_force_py	ground_force_pz	1_ground_force_vx	1_ground_force_vy	1_ground_force_vz	1_ground_force_px	1_ground_force_py	1_ground_force_pz	ground_torque_x	ground_torque_y	ground_torque_z	1_ground_torque_x	1_ground_torque_y	1_ground_torque_z
        0.7973621540	      129.8542464451	      385.8326166032	        5.2278111517	        0.5341971514	        0.0000000000	        0.0423215810	      -75.9766039041	      178.0570920817	      -25.2923535993	        1.3078982528	        0.0000000000	       -0.0465597092	        0.0000000000	        0.0000000000	        0.0000000000	        0.0000000000	        0.0000000000	        0.0000000000	
        0.8133093971	       69.6070526759	      275.3759725232	        8.9139948578	        0.5482958214	        0.0000000000	        0.0377863427	     -136.3568890283	      583.0941553925	        6.7541958652	        1.3101026235	        0.0000000000	       -0.0455700812	        0.0000000000	        0.0000000000	        0.0000000000	        0.0000000000	        0.0000000000	        0.0000000000	
        0.8292566402	       52.1877184546	      217.3866905731	       13.9289510051	        0.5534954271	        0.0000000000	        0.0362089413	     -190.9650055397	      739.0148275742	        9.3644430520	        1.3122618292	        0.0000000000	       -0.0455478764	        0.0000000000	        0.0000000000	        0.0000000000	        0.0000000000	        0.0000000000	        0.0000000000	
        0.8452038832	       41.5605634190	      150.5508843359	       19.0095653380	        0.5537893893	        0.0000000000	        0.0368000773	     -206.4218249255	      793.0400199171	        8.2541181106	        1.3199574286	        0.0000000000	       -0.0473170691	        0.0000000000	        0.0000000000	        0.0000000000	        0.0000000000	        0.0000000000	        0.0000000000	
        0.8611511263	       12.1091524705	       53.2706965780	       15.9425877901	        0.5533034727	        0.0000000000	        0.0381052187	     -211.5144776693	      809.2475079163	        1.5065340881	        1.3286204336	        0.0000000000	       -0.0496440409	        0.0000000000	        0.0000000000	        0.0000000000	        0.0000000000	        0.0000000000	        0.0000000000	
        0.8770983694	        0.0595502253	       -0.0611518923	       -0.0130304125	        0.0000000000	        0.0000000000	        0.0000000000	     -202.8292003802	      812.5547415784	        1.7394649941	        1.3342521293	        0.0000000000	       -0.0507480355	        0.0000000000	        0.0000000000	        0.0000000000	        0.0000000000	        0.0000000000	        0.0000000000	
        0.8930456125	      -15.6963721397	       11.2232375622	       -0.8820792689	        0.5649860942	        0.0000000000	        0.0353687176	     -177.8867919696	      793.5846747762	        5.6328227837	        1.3384223718	        0.0000000000	       -0.0512827867	        0.0000000000	        0.0000000000	        0.0000000000	        0.0000000000	        0.0000000000	        0.0000000000	
        0.9089928556	      -24.5487590316	       15.7645355370	       -1.5249333225	        0.5899662132	        0.0000000000	        0.0374660853	     -158.2646101971	      756.5622453004	        9.3054766149	        1.3418199084	        0.0000000000	       -0.0516288221	        0.0000000000	        0.0000000000	        0.0000000000	        0.0000000000	        0.0000000000	        0.0000000000	
        0.9249400986	      -25.7660365209	       14.7951882635	       -2.2468211387	        0.6198638416	        0.0000000000	        0.0401486938	     -139.7989632983	      723.8976822450	       10.4862201881	        1.3450600259	        0.0000000000	       -0.0518315770	        0.0000000000	        0.0000000000	        0.0000000000	        0.0000000000	        0.0000000000	        0.0000000000	
        0.9408873417	      -25.4091196145	       13.5513659570	       -2.1091254479	        0.6536190482	        0.0000000000	        0.0431957433	     -121.2983420674	      694.2472684575	        9.5459123749	        1.3484961609	        0.0000000000	       -0.0519655585	        0.0000000000	        0.0000000000	        0.0000000000	        0.0000000000	        0.0000000000	        0.0000000000	
        0.9568345848	      -24.4302239082	       12.4390753747	       -1.8363360588	        0.6898180491	        0.0000000000	        0.0459822023	     -105.1186906516	      666.2173457761	       10.7588604454	        1.3520737595	        0.0000000000	       -0.0520258488	        0.0000000000	        0.0000000000	        0.0000000000	        0.0000000000	        0.0000000000	        0.0000000000	
        0.9727818279	      -21.4589313470	       10.6176145216	       -1.3046247548	        0.7279020839	        0.0000000000	        0.0483228746	      -91.3278099992	      642.8821284092	       11.7992549045	        1.3563181778	        0.0000000000	       -0.0519827585	        0.0000000000	        0.0000000000	        0.0000000000	        0.0000000000	        0.0000000000	        0.0000000000	
        0.9887290710	      -17.8657554291	        8.6125743496	       -0.9062658672	        0.0000000000	        0.0000000000	        0.0000000000	      -79.9427651310	      625.1897272221	       13.0993062505	        1.3611264038	        0.0000000000	       -0.0518850314	        0.0000000000	        0.0000000000	        0.0000000000	        0.0000000000	        0.0000000000	        0.0000000000	
        1.0046763140	      -13.9870600012	        6.5819777095	       -0.6031271805	        0.0000000000	        0.0000000000	        0.0000000000	      -69.8004037771	      610.6507030319	       14.1389057681	        1.3659624388	        0.0000000000	       -0.0518640970	        0.0000000000	        0.0000000000	        0.0000000000	        0.0000000000	        0.0000000000	        0.0000000000	
        1.0206235571	      -10.2839010982	        4.7417229244	       -0.3759895936	        0.0000000000	        0.0000000000	        0.0000000000	      -60.8449928200	      598.3725456340	       15.2509905200	        1.3705952631	        0.0000000000	       -0.0519469412	        0.0000000000	        0.0000000000	        0.0000000000	        0.0000000000	        0.0000000000	        0.0000000000	
        1.0365708002	       -7.3764087488	        3.3427767849	       -0.2215871051	        0.0000000000	        0.0000000000	        0.0000000000	      -53.2226688688	      589.1399842651	       15.9915599106	        1.3750773927	        0.0000000000	       -0.0521211333	        0.0000000000	        0.0000000000	        0.0000000000	        0.0000000000	        0.0000000000	        0.0000000000	
        1.0525180433	       -5.3047749107	        2.3660154989	       -0.1293577230	        0.0000000000	        0.0000000000	        0.0000000000	      -48.1805506817	      584.8535041401	       16.6337202218	        1.3794511967	        0.0000000000	       -0.0523549095	        0.0000000000	        0.0000000000	        0.0000000000	        0.0000000000	        0.0000000000	        0.0000000000	
        1.0684652864	       -3.6968464580	        1.6240149637	       -0.0774213334	        0.0000000000	        0.0000000000	        0.0000000000	      -43.7134572561	      583.7573563174	       17.1580320535	        1.3836426842	        0.0000000000	       -0.0526373222	        0.0000000000	        0.0000000000	        0.0000000000	        0.0000000000	        0.0000000000	        0.0000000000	
        1.0844125294	       -2.4912274189	        1.0768454573	       -0.0469313007	        0.0000000000	        0.0000000000	        0.0000000000	      -38.1729169677	      582.6905098989	       17.2417020953	        1.3876468063	        0.0000000000	       -0.0529679537	        0.0000000000	        0.0000000000	        0.0000000000	        0.0000000000	        0.0000000000	        0.0000000000	
        1.1003597725	       -1.7610939753	        0.7477995822	       -0.0300538299	        0.0000000000	        0.0000000000	        0.0000000000	      -31.8174207444	      580.2925324624	       17.3177869069	        1.3914508559	        0.0000000000	       -0.0533307809	        0.0000000000	        0.0000000000	        0.0000000000	        0.0000000000	        0.0000000000	        0.0000000000	
        1.1163070156	       -1.3570608528	        0.5657138270	       -0.0209340672	        0.0000000000	        0.0000000000	        0.0000000000	      -25.3567019618	      576.8292813632	       18.3206079483	        1.3950851944	        0.0000000000	       -0.0537041342	        0.0000000000	        0.0000000000	        0.0000000000	        0.0000000000	        0.0000000000	        0.0000000000	
        1.1322542587	       -1.1355950370	        0.4649955303	       -0.0164529012	        0.0000000000	        0.0000000000	        0.0000000000	      -18.6244871689	      572.6738059120	       19.4031868505	        1.3985585212	        0.0000000000	       -0.0541043641	        0.0000000000	        0.0000000000	        0.0000000000	        0.0000000000	        0.0000000000	        0.0000000000	
        1.1482015018	       -1.0096841207	        0.4063860024	       -0.0147321480	        0.0000000000	        0.0000000000	        0.0000000000	      -11.7105590415	      567.4960842073	       20.7361109925	        1.4019404799	        0.0000000000	       -0.0545122899	        0.0000000000	        0.0000000000	        0.0000000000	        0.0000000000	        0.0000000000	        0.0000000000	
        1.1641487448	       -0.9668353859	        0.3824598471	       -0.0150140238	        0.0000000000	        0.0000000000	        0.0000000000	       -5.0908991129	      559.6274925881	       21.0016411627	        1.4052641632	        0.0000000000	       -0.0549323803	        0.0000000000	        0.0000000000	        0.0000000000	        0.0000000000	        0.0000000000	        0.0000000000	
        1.1800959879	       -1.0341041094	        0.4018490884	       -0.0172310995	        0.0000000000	        0.0000000000	        0.0000000000	        1.9679994587	      551.6945873611	       21.6797956877	        1.4093059608	        0.0000000000	       -0.0552657189	        0.0000000000	        0.0000000000	        0.0000000000	        0.0000000000	        0.0000000000	        0.0000000000	
